<svg width="40" height="40" viewBox="0 0 40 40" fill="none" xmlns="http://www.w3.org/2000/svg">
<path d="M20.8082 13.4954V7.71539C20.8082 6.57222 20.4734 5.45473 19.8463 4.50422C19.2191 3.55371 18.3276 2.81287 17.2847 2.3754C16.2417 1.93793 15.0941 1.82347 13.9869 2.04649C12.8796 2.26951 11.8626 2.82 11.0644 3.62834C10.2661 4.43668 9.72249 5.46657 9.50225 6.58778C9.28202 7.70898 9.39505 8.87114 9.82706 9.92729C10.2591 10.9834 10.9907 11.8861 11.9293 12.5213C12.8679 13.1564 13.9715 13.4954 15.1004 13.4954H20.8082Z" fill="white"/>
<path d="M32.433 11.8449C33.1017 11.1749 33.5965 10.3479 33.8734 9.43756C34.1503 8.52719 34.2007 7.56164 34.0202 6.62677C33.8396 5.69191 33.4337 4.81673 32.8385 4.07907C32.2434 3.34141 31.4774 2.76415 30.6087 2.39863C29.74 2.03311 28.7956 1.89067 27.8594 1.98397C26.9233 2.07727 26.0244 2.40343 25.2428 2.93343C24.4611 3.46342 23.821 4.18083 23.3792 5.02183C22.9375 5.86284 22.7078 6.80136 22.7107 7.75393V13.5339H28.4185C29.1645 13.5336 29.9031 13.3843 30.592 13.0945C31.2809 12.8046 31.9065 12.38 32.433 11.8449Z" fill="white"/>
<path d="M5.42883 26.7505C5.42883 32.1516 8.73936 36.4223 13.4895 37.6682V16.1282C8.82815 17.7659 5.42883 22.0431 5.42883 26.7505Z" fill="#F8CD0E"/>
<path d="M26.9915 38.0728C28.6752 37.9292 30.3127 37.4414 31.8049 36.6389C33.2972 35.8364 34.6133 34.7359 35.6738 33.4039C34.5115 33.713 33.2897 33.709 32.1294 33.3925C30.9691 33.0759 29.9107 32.4578 29.059 31.5992L30.3909 30.2377C31.3223 31.1772 32.58 31.71 33.8946 31.722C35.2092 31.734 36.4761 31.2243 37.4242 30.302C37.8454 29.1666 38.0603 27.9634 38.0584 26.7505C38.097 25.2675 37.8391 23.7919 37.3001 22.4125C36.761 21.033 35.9521 19.7782 34.9218 18.7235C33.8916 17.6689 32.6613 16.8361 31.305 16.2753C29.9487 15.7145 28.4944 15.4373 27.0296 15.4603H22.7107V38.0728H26.9915ZM29.7567 22.3064C30.1521 22.3064 30.5385 22.4252 30.8672 22.6477C31.1959 22.8703 31.4519 23.1866 31.6029 23.5567C31.7539 23.9267 31.7931 24.3338 31.7155 24.7264C31.6379 25.119 31.447 25.4794 31.167 25.7621C30.887 26.0447 30.5304 26.2369 30.1425 26.3142C29.7546 26.3916 29.3527 26.3506 28.9878 26.1965C28.6228 26.0424 28.3113 25.7821 28.0925 25.4486C27.8738 25.1151 27.7577 24.7233 27.7589 24.3229C27.7589 24.0576 27.8106 23.7948 27.9111 23.5497C28.0116 23.3046 28.1588 23.0821 28.3444 22.8947C28.53 22.7074 28.7503 22.559 28.9926 22.458C29.235 22.357 29.4946 22.3055 29.7567 22.3064Z" fill="#F8CD0E"/>
<path d="M16.4956 15.4604C16.1253 15.492 15.757 15.5434 15.3921 15.6145V38.0215C15.7282 38.0536 16.077 38.0729 16.4258 38.0729H20.8082V15.454H16.4956V15.4604Z" fill="#F8CD0E"/>
<path d="M29.7568 26.3399C30.1519 26.3399 30.5381 26.2212 30.8666 25.9989C31.1952 25.7766 31.4512 25.4607 31.6024 25.091C31.7536 24.7214 31.7932 24.3146 31.7161 23.9222C31.639 23.5298 31.4488 23.1693 31.1694 22.8864C30.89 22.6035 30.534 22.4108 30.1465 22.3328C29.759 22.2547 29.3573 22.2948 28.9923 22.4479C28.6272 22.601 28.3152 22.8603 28.0957 23.193C27.8762 23.5256 27.759 23.9168 27.759 24.3169C27.759 24.8534 27.9695 25.368 28.3442 25.7473C28.7188 26.1267 29.2269 26.3399 29.7568 26.3399Z" fill="black"/>
<path d="M32.0335 14.523C32.6737 14.1703 33.2609 13.727 33.7775 13.2064C34.546 12.4256 35.14 11.4869 35.5196 10.4537C35.8992 9.42056 36.0555 8.31695 35.9779 7.21739C35.9003 6.11783 35.5907 5.04792 35.07 4.07987C34.5492 3.11182 33.8295 2.26817 32.9592 1.60586C32.089 0.943558 31.0886 0.47801 30.0255 0.240645C28.9625 0.0032806 27.8615 -0.000376112 26.7969 0.229922C25.7323 0.46022 24.7289 0.919113 23.8545 1.57562C22.98 2.23214 22.2547 3.07099 21.7277 4.03555C21.153 2.96129 20.3343 2.0408 19.3391 1.35001C18.3439 0.659225 17.2008 0.217943 16.004 0.0625703C14.8073 -0.0928027 13.5912 0.0421856 12.4561 0.456399C11.3211 0.870613 10.2995 1.55218 9.47572 2.44488C8.65195 3.33757 8.04958 4.41581 7.71831 5.59065C7.38703 6.76548 7.33635 8.00324 7.57043 9.20181C7.80452 10.4004 8.31667 11.5254 9.06462 12.4841C9.81258 13.4428 10.7749 14.2077 11.8722 14.7156C7.30599 16.7065 3.9701 21.0094 3.57689 25.8003H0V27.727H3.57055C3.74808 31.0548 5.18356 34.1859 7.57935 36.4708C9.97514 38.7558 13.1474 40.0195 16.4385 39.9998H27.1057C34.1961 39.4346 39.9991 33.4941 39.9991 26.7508C40.0303 24.1399 39.288 21.5794 37.8682 19.3998C36.4483 17.2202 34.416 15.5215 32.0335 14.523V14.523ZM13.4895 37.6878C8.73929 36.4034 5.42876 32.1519 5.42876 26.7701C5.42876 22.0626 8.8471 17.779 13.4895 16.1478V37.6878ZM20.8081 38.0731H16.4385C16.0897 38.0731 15.7409 38.0731 15.4047 38.0217V15.6147C15.7696 15.5436 16.138 15.4922 16.5083 15.4606H20.8208L20.8081 38.0731ZM20.8081 13.5211H15.1003C13.5917 13.518 12.145 12.9135 11.0731 11.8385C10.4045 11.1685 9.90966 10.3416 9.63275 9.4312C9.35585 8.52084 9.30543 7.55528 9.48598 6.62042C9.66653 5.68555 10.0724 4.81037 10.6676 4.07271C11.2628 3.33505 12.0288 2.75779 12.8975 2.39227C13.7662 2.02676 14.7106 1.88431 15.6467 1.97761C16.5829 2.07092 17.4818 2.39707 18.2634 2.92707C19.045 3.45707 19.6852 4.17447 20.127 5.01548C20.5687 5.85648 20.7983 6.79501 20.7954 7.74758L20.8081 13.5211ZM22.7107 7.74115C22.7107 6.59798 23.0455 5.48049 23.6727 4.52998C24.2999 3.57947 25.1913 2.83863 26.2343 2.40116C27.2772 1.96369 28.4249 1.84923 29.5321 2.07225C30.6393 2.29527 31.6563 2.84576 32.4546 3.6541C33.2528 4.46244 33.7964 5.49234 34.0167 6.61354C34.2369 7.73474 34.1239 8.8969 33.6919 9.95305C33.2599 11.0092 32.5283 11.9119 31.5896 12.547C30.651 13.1821 29.5474 13.5211 28.4185 13.5211H22.7107V7.74115ZM30.3909 30.2381L29.0591 31.5996C29.9107 32.4581 30.9691 33.0763 32.1294 33.3928C33.2897 33.7094 34.5116 33.7133 35.6738 33.4042C34.6116 34.7327 33.2947 35.8296 31.8026 36.6287C30.3104 37.4278 28.6738 37.9126 26.9916 38.0539H22.7107V15.4542H27.0296C28.4982 15.4259 29.9571 15.6994 31.3183 16.2582C32.6795 16.8171 33.9147 17.6496 34.9491 18.7055C35.9835 19.7614 36.7958 21.0188 37.3368 22.4016C37.8777 23.7844 38.1362 25.264 38.0964 26.7508C38.0984 27.9637 37.8835 29.1669 37.4622 30.3023C36.5125 31.2362 35.2374 31.7533 33.9135 31.7412C32.5897 31.7292 31.324 31.1891 30.3909 30.2381V30.2381Z" fill="black"/>
</svg>
